<svg clip-rule="evenodd" fill-rule="evenodd" stroke-linejoin="round" stroke-miterlimit="1.41421" viewBox="0 0 4920 1433" xmlns="http://www.w3.org/2000/svg"><g fill="#365c6c"><path d="m2217.16233561 534.2967128h105.48758439v501.0837342h-105.48758439z" stroke-width="4.16667"/><path d="m0-22.604c-3.164 3.164-4.747 6.933-4.747 11.302 0 4.373 1.583 8.138 4.747 11.302 3.167 3.165 6.931 4.748 11.304 4.748 4.37 0 8.138-1.583 11.303-4.748 3.164-3.164 4.747-6.929 4.747-11.302 0-4.369-1.583-8.138-4.747-11.302-3.165-3.167-6.933-4.748-11.303-4.748-4.373 0-8.137 1.581-11.304 4.748" fill-rule="nonzero" transform="matrix(4.16667 0 0 4.16667 2223.75 434.466)"/><path d="m0 120.26 28.03-40.012 28.708 40.012h31.196l-43.854-61.487 42.046-58.773h-30.066l-26.674 39.559-25.77-39.559h-30.969l40.463 58.999-42.722 61.261z" fill-rule="nonzero" transform="matrix(4.16667 0 0 4.16667 2540.21 534.313)"/><path d="m3000.8171292 534.2967128h105.48758439v501.0837342h-105.48758439z" stroke-width="4.16667"/><path d="m0-22.604c-3.165 3.164-4.748 6.933-4.748 11.302 0 4.373 1.583 8.138 4.748 11.302 3.166 3.165 6.931 4.748 11.304 4.748 4.369 0 8.138-1.583 11.302-4.748 3.165-3.164 4.748-6.929 4.748-11.302 0-4.369-1.583-8.138-4.748-11.302-3.164-3.167-6.933-4.748-11.302-4.748-4.373 0-8.138 1.581-11.304 4.748" fill-rule="nonzero" transform="matrix(4.16667 0 0 4.16667 3007.39 434.466)"/><path d="m0 0c0-11.603 3.578-21.057 10.737-28.37 7.156-7.307 16.237-10.963 27.239-10.963 11 0 20.081 3.656 27.24 10.963 7.156 7.313 10.738 16.767 10.738 28.37 0 11.606-3.582 21.061-10.738 28.37-7.159 7.311-16.24 10.964-27.24 10.964-11.002 0-20.083-3.653-27.239-10.964-7.159-7.309-10.737-16.764-10.737-28.37m83.187 43.968c12.056-11.981 18.084-26.636 18.084-43.968 0-17.329-6.028-31.986-18.084-43.968-12.058-11.981-27.125-17.971-45.211-17.971-18.084 0-33.155 5.99-45.209 17.971-12.06 11.982-18.084 26.639-18.084 43.968 0 17.332 6.024 31.987 18.084 43.968 12.054 11.98 27.125 17.971 45.209 17.971 18.086 0 33.153-5.991 45.211-17.971" fill-rule="nonzero" transform="matrix(4.16667 0 0 4.16667 3964.33 784.85)"/><path d="m0-120.26h-30.066l-26.674 39.559-25.771-39.559h-30.969l40.463 58.999-42.722 61.261h29.613l28.029-40.012 28.708 40.012h31.197l-43.855-61.488z" fill-rule="nonzero" transform="matrix(4.16667 0 0 4.16667 4911.87 1035.4)"/><path d="m0-33.168c21.109 0 38.282 17.173 38.282 38.282s-17.173 38.282-38.282 38.282-38.283-17.173-38.283-38.282 17.174-38.282 38.283-38.282m0 101.387c14.395 0 27.669-4.855 38.295-13.001v11.427h24.808v-168.032h-.02-24.78-.008v56.394c-10.628-8.143-23.902-12.997-38.295-12.997-34.794 0-63.103 28.308-63.103 63.104s28.309 63.105 63.103 63.105" fill-rule="nonzero" transform="matrix(4.16667 0 0 4.16667 1799.14 757.59)"/><path d="m0-33.168c21.109 0 38.283 17.173 38.283 38.282s-17.174 38.282-38.283 38.282-38.282-17.173-38.282-38.282 17.173-38.282 38.282-38.282m-38.392-68.219h-24.691-.02v168.032h24.711v-11.499c10.642 8.19 23.954 13.073 38.392 13.073 34.795 0 63.103-28.309 63.103-63.105s-28.308-63.104-63.103-63.104c-14.396 0-27.673 4.856-38.303 13.003v-56.4z" fill-rule="nonzero" transform="matrix(4.16667 0 0 4.16667 3527.35 757.59)"/></g><path d="m0-21.563c0-13.355-7.125-25.696-18.691-32.375l-119.517-69.002c-1.973-1.139-4.028-2.069-6.131-2.819v151.989l144.339 77.966z" fill="#82c9ef" fill-rule="nonzero" transform="matrix(4.16667 0 0 4.16667 1307.5 524.023)"/><path d="m0-162.821v3.338h-.131c-2.155 33.093-29.747 59.361-63.374 59.361-18.478 0-35.133-7.935-46.751-20.57l-.124.071-56.423 34.156c.419.554.867 1.103 1.364 1.637 3.139 3.374 7.68 6.321 11.667 8.571l1.728.975 129.011 72.817c.26.147.525.277.789.411l1.658.768c2.607 1.06 5.386 1.594 8.166 1.597h.013c-.005 0-.009 0-.014 0 .007 0 .014.001.021.001 2.786 0 5.572-.535 8.186-1.598l.72-.317c.585-.263 1.163-.545 1.726-.862l129.011-72.817 1.729-.975c4.093-2.311 8.766-5.571 11.91-9.108.341-.383.655-.769.955-1.158l-141.829-76.61c-.004.104-.007.208-.008.312" fill="#60c6c5" fill-rule="nonzero" transform="matrix(4.16667 0 0 4.16667 705.415 1431.58)"/><path d="m0 130.582c0-35.029 28.498-63.527 63.526-63.527 14.493 0 27.859 4.888 38.56 13.089v-129.493c-.373.134-.745.273-1.116.418-.192.076-.387.138-.578.217-1.519.626-3.007 1.356-4.452 2.19l-103.427 59.713-16.089 9.29c-.573.331-1.116.699-1.667 1.057-5.53 3.594-9.948 8.509-12.885 14.22-.462.897-.887 1.813-1.275 2.746-.034.08-.06.164-.093.246-.434 1.063-.807 2.151-1.142 3.253-.314 1.033-.57 2.086-.797 3.147-.534 2.507-.833 5.083-.833 7.705v125.078l46.039-27.87c-2.424-6.714-3.771-13.939-3.771-21.479" fill="#fce359" fill-rule="nonzero" transform="matrix(4.16667 0 0 4.16667 176.117 205.621)"/><path d="m0 0c0 21.285 17.255 38.539 38.539 38.539 21.285 0 38.539-17.254 38.539-38.539s-17.254-38.539-38.539-38.539c-21.284 0-38.539 17.254-38.539 38.539" fill="#60c6c5" fill-rule="nonzero" transform="matrix(4.16667 0 0 4.16667 279.431 749.713)"/></svg>