<svg clip-rule="evenodd" fill-rule="evenodd" stroke-linejoin="round" stroke-miterlimit="2" viewBox="0 0 200 48" xmlns="http://www.w3.org/2000/svg"><path d="m2292.86 904.001h33.14v65.605c0 9.904 0 14.856-1.68 20.186-2.12 5.82-6.71 10.408-12.53 12.528-5.33 1.68-10.28 1.68-20.18 1.68h-14.02c-14.85 0-22.28 0-30.28 2.53-8.73 3.18-15.6 10.05-18.78 18.78-2.53 8-2.53 15.43-2.53 30.28v148.41c-27.61-.01-41.96-.18-57.37-5.06-17.46-6.35-31.22-20.1-37.57-37.56-5.06-16-5.06-30.85-5.06-60.56v-24.84c0-49.52 0-74.28 8.43-100.936 10.59-29.101 33.51-52.024 62.61-62.616 25.72-8.132 49.68-8.417 95.82-8.427z" fill="#1ed8b9" transform="matrix(-.116841 -.116841 .116841 -.116841 184.922 408.903)"/><path d="m2292.86 904.001h33.14v65.605c0 9.904 0 14.856-1.68 20.186-2.12 5.82-6.71 10.408-12.53 12.528-5.33 1.68-10.28 1.68-20.18 1.68h-14.02c-14.85 0-22.28 0-30.28 2.53-8.73 3.18-15.6 10.05-18.78 18.78-2.53 8-2.53 15.43-2.53 30.28v148.41c-27.61-.01-41.96-.18-57.37-5.06-17.46-6.35-31.22-20.1-37.57-37.56-5.06-16-5.06-30.85-5.06-60.56v-24.84c0-49.52 0-74.28 8.43-100.936 10.59-29.101 33.51-52.024 62.61-62.616 25.72-8.132 49.68-8.417 95.82-8.427z" fill="#4769d5" transform="matrix(.116841 .116841 -.116841 .116841 -112.325 -361.703)"/><g fill="#24274a" fill-rule="nonzero"><path d="m.537-.688h-.15v.269c-.031-.04-.079-.06-.142-.06-.065 0-.118.023-.159.07-.04.046-.06.105-.06.176s.02.129.06.175c.041.045.094.068.159.068.059 0 .11-.018.138-.046l.005.036h.149zm-.252.347c.057 0 .1.044.1.107s-.043.106-.1.106c-.06 0-.104-.045-.104-.106 0-.064.044-.107.104-.107z" transform="matrix(52.8828 0 0 52.8828 85.9305 36.371)"/><path d="m.097-.409c-.048.047-.072.105-.072.175s.024.128.072.175c.048.046.108.069.18.069.073 0 .133-.023.18-.069.048-.047.072-.105.072-.175s-.024-.128-.072-.175c-.047-.047-.107-.07-.18-.07-.072 0-.132.023-.18.07zm.252.097c.019.02.028.046.028.078 0 .031-.009.057-.028.078-.019.02-.043.03-.072.03s-.053-.01-.072-.03c-.018-.021-.027-.047-.027-.078 0-.032.009-.058.027-.078.019-.02.043-.03.072-.03s.053.01.072.03z" transform="matrix(52.8828 0 0 52.8828 116.761 36.371)"/><path d="m.197 0c-.013.048-.047.072-.091.072-.017 0-.036-.004-.055-.012l-.021.121c.033.016.067.024.101.024.091 0 .163-.045.2-.136l.217-.538h-.172l-.097.314-.099-.314h-.171z" transform="matrix(52.8828 0 0 52.8828 144.472 36.371)"/><path d="m.097-.409c-.048.047-.072.105-.072.175s.024.128.072.175c.048.046.108.069.18.069.073 0 .133-.023.18-.069.048-.047.072-.105.072-.175s-.024-.128-.072-.175c-.047-.047-.107-.07-.18-.07-.072 0-.132.023-.18.07zm.252.097c.019.02.028.046.028.078 0 .031-.009.057-.028.078-.019.02-.043.03-.072.03s-.053-.01-.072-.03c-.018-.021-.027-.047-.027-.078 0-.032.009-.058.027-.078.019-.02.043-.03.072-.03s.053.01.072.03z" transform="matrix(52.8828 0 0 52.8828 172.023 36.371)"/></g></svg>